#!OML:ASF I:\Actors\actors\Patient Classification 1\Patient 1\Session 1\Subject1.ASF
:FULLY-SPECIFIED
:DEGREES
846
root 0.823245 17.5808 8.58721 9.97088 2.19906 -8.83102
lowerback 1.5685 -0.100245 6.87075
upperback -3.19499 0.224614 2.85383
thorax -4.18714 -0.0590137 -0.900636
lowerneck -8.24627 -3.41542 -2.48798
upperneck 46.398 -6.84821 4.27314
head 19.6866 -2.63646 1.35523
rclavicle 7.12829e-016 6.88292e-015
rhumerus 7.17802 71.6101 -87.3612
rradius 139.984
rwrist -13.8916
rhand -42.2892 -84.9498
rfingers 7.12502
rthumb -15.1737 114.373
lclavicle 7.12829e-016 6.88292e-015
lhumerus -17.4502 -67.6217 110.738
lradius 137.13
lwrist 11.3162
lhand -53.3845 -25.7026
lfingers 7.12502
lthumb -25.834 2.56297
rfemur -5.7975 24.9572 25.1001
rtibia 4.26018
rfoot -13.2263 -25.2202
rtoes 3.46841
lfemur 0.437895 -42.5671 -7.3999
ltibia -3.67021
lfoot -16.6676 47.7613
ltoes 3.21167
847
root 0.826289 17.5847 8.5957 9.95272 2.17831 -8.72267
lowerback 1.6012 -0.059407 6.81887
upperback -3.45768 0.296468 2.82949
thorax -4.47648 -0.0344377 -0.898498
lowerneck -8.46647 -3.52118 -2.71961
upperneck 46.2109 -7.05277 4.51719
head 19.6672 -2.72452 1.47377
rclavicle -1.32495e-014 1.74558e-014
rhumerus 6.68824 71.3584 -87.9914
rradius 140.128
rwrist -13.644
rhand -41.9419 -84.4063
rfingers 7.12502
rthumb -14.8392 113.855
lclavicle -1.32495e-014 1.74558e-014
lhumerus -17.1154 -68.1586 110.538
lradius 137.054
lwrist 11.4978
lhand -53.8284 -27.4421
lfingers 7.12502
lthumb -26.2591 0.760876
rfemur -5.67458 24.9743 25.0009
rtibia 4.13704
rfoot -13.1291 -25.2736
rtoes 3.22712
lfemur 0.564793 -42.7552 -7.65219
ltibia -3.65188
lfoot -16.9077 47.9233
ltoes 3.44015
848
root 0.829701 17.588 8.60742 9.87068 2.16999 -8.6804
lowerback 1.58121 -0.0235482 6.87531
upperback -3.69493 0.358236 2.78517
thorax -4.71061 -0.017161 -0.977049
lowerneck -8.51836 -3.56754 -2.73971
upperneck 45.8705 -7.14762 4.63374
head 19.4623 -2.75314 1.50862
rclavicle -6.42168e-016 1.61885e-014
rhumerus 4.34678 70.486 -90.7235
rradius 140.28
rwrist -13.0741
rhand -40.7068 -82.782
rfingers 7.12502
rthumb -13.6491 112.314
lclavicle -6.42168e-016 1.61885e-014
lhumerus -16.6734 -68.7314 110.172
lradius 136.983
lwrist 12.0022
lhand -53.9911 -30.0618
lfingers 7.12502
lthumb -26.4148 -1.88219
rfemur -5.47123 24.9485 25.0224
rtibia 4.0393
rfoot -13.0261 -25.2994
rtoes 2.93395
lfemur 0.795356 -42.9175 -7.9049
ltibia -3.63347
lfoot -16.9857 48.0709
ltoes 3.36841
849
root 0.83217 17.5879 8.61948 9.73554 2.16961 -8.7055
lowerback 1.53031 -0.035326 6.95946
upperback -3.89168 0.353885 2.78975
thorax -4.88981 -0.0308115 -1.01685
lowerneck -8.57464 -3.54317 -2.59712
upperneck 45.5597 -7.08472 4.54208
head 19.2443 -2.71753 1.43953
rclavicle 2.26351e-015 5.72748e-015
rhumerus 5.04071 70.7631 -90.0556
rradius 140.33
rwrist -13.1861
rhand -41.176 -82.607
rfingers 7.12502
rthumb -14.1013 112.109
lclavicle 2.26351e-015 5.72748e-015
lhumerus -15.9485 -68.8827 109.48
lradius 137.012
lwrist 12.0274
lhand -53.8898 -30.3153
lfingers 7.12502
lthumb -26.3178 -2.12113
rfemur -5.246 24.9067 25.1467
rtibia 4.01333
rfoot -13.0164 -25.28
rtoes 2.81352
lfemur 1.0942 -42.9172 -8.09831
ltibia -3.67077
lfoot -16.673 48.0933
ltoes 2.98969
850
root 0.834531 17.5852 8.63034 9.58394 2.16665 -8.73626
lowerback 1.48071 -0.065865 7.05213
upperback -4.05416 0.322968 2.79924
thorax -5.03592 -0.0565677 -1.05493
lowerneck -8.76698 -3.52069 -2.48955
upperneck 45.3753 -7.01485 4.42158
head 19.1532 -2.6853 1.36471
rclavicle -8.32023e-016 1.25545e-014
rhumerus 7.9604 71.4842 -87.1936
rradius 140.43
rwrist -13.4724
rhand -41.958 -83.8986
rfingers 7.12502
rthumb -14.8547 113.346
lclavicle -8.32023e-016 1.25545e-014
lhumerus -15.0227 -68.8253 108.59
lradius 137.102
lwrist 11.585
lhand -53.789 -28.834
lfingers 7.12502
lthumb -26.2214 -0.62543
rfemur -5.06579 24.808 25.2753
rtibia 4.0936
rfoot -13.059 -25.1974
rtoes 2.68486
lfemur 1.44222 -42.9604 -8.30157
ltibia -3.74928
lfoot -16.5274 48.1326
ltoes 2.9038
851
root 0.836793 17.5819 8.64115 9.40842 2.1679 -8.79385
lowerback 1.40524 -0.066926 7.22023
upperback -4.14323 0.325352 2.76792
thorax -5.08769 -0.0659082 -1.1799
lowerneck -9.0425 -3.54828 -2.51393
upperneck 45.2262 -7.07805 4.49803
head 19.1429 -2.7015 1.38601
rclavicle 2.63786e-014 1.04362e-014
rhumerus 6.58481 70.9438 -88.8761
rradius 140.462
rwrist -13.0184
rhand -41.1377 -82.6233
rfingers 7.12502
rthumb -14.0643 112.127
lclavicle 2.63786e-014 1.04362e-014
lhumerus -14.0996 -68.821 107.71
lradius 137.169
lwrist 11.0984
lhand -53.8641 -27.1659
lfingers 7.12502
lthumb -26.2932 1.03192
rfemur -4.86538 24.6379 25.4389
rtibia 4.18216
rfoot -13.0774 -25.0469
rtoes 2.61522
lfemur 1.84004 -43.0951 -8.5142
ltibia -3.81823
lfoot -16.6506 48.2409
ltoes 3.02077
